<svg width="256" height="256" viewBox="0 0 256 256" fill="none" xmlns="http://www.w3.org/2000/svg">
<rect width="256" height="256" rx="32" fill="#191919"/>
<path d="M117.051 145.562H143.912L157.416 162.934L170.701 178.409L195.737 209.796H166.248L149.022 188.628L140.19 176.073L117.051 145.562ZM198 122.788C198 139.09 194.91 152.959 188.73 164.394C182.599 175.83 174.229 184.564 163.62 190.599C153.061 196.584 141.187 199.577 128 199.577C114.715 199.577 102.793 196.56 92.2336 190.526C81.674 184.491 73.3285 175.757 67.1971 164.321C61.0657 152.886 58 139.041 58 122.788C58 106.487 61.0657 92.618 67.1971 81.1825C73.3285 69.747 81.674 61.0365 92.2336 55.0511C102.793 49.017 114.715 46 128 46C141.187 46 153.061 49.017 163.62 55.0511C174.229 61.0365 182.599 69.747 188.73 81.1825C194.91 92.618 198 106.487 198 122.788ZM165.956 122.788C165.956 112.229 164.375 103.324 161.212 96.073C158.097 88.8224 153.693 83.3236 148 79.5766C142.307 75.8297 135.64 73.9562 128 73.9562C120.36 73.9562 113.693 75.8297 108 79.5766C102.307 83.3236 97.8783 88.8224 94.7153 96.073C91.601 103.324 90.0438 112.229 90.0438 122.788C90.0438 133.348 91.601 142.253 94.7153 149.504C97.8783 156.754 102.307 162.253 108 166C113.693 169.747 120.36 171.62 128 171.62C135.64 171.62 142.307 169.747 148 166C153.693 162.253 158.097 156.754 161.212 149.504C164.375 142.253 165.956 133.348 165.956 122.788Z" fill="white"/>
</svg>